<svg xmlns="http://www.w3.org/2000/svg" viewBox="0 0 512 565"><path fill-rule="evenodd" d="m237.5 44.4-177 104.4-.5.3a38.7 38.7 0 0 0-20.2 33.8v191.3a38.7 38.7 0 0 0 21.3 34.5l176.6 111.8a39.9 39.9 0 0 0 37.4 0l176.7-111.8 1-.6a38.7 38.7 0 0 0 20.3-33.9V182.8a38.7 38.7 0 0 0-19.6-33.9c-1.4-.7-2.6-1.6-3.6-2.6L277 44.4a41.5 41.5 0 0 0-39.6 0Zm240.3 73.3c-1-1-2.3-2-3.7-2.8L296.8 10.4l-.4-.3a80.9 80.9 0 0 0-78.1 0l-.5.3-177 104.3A78 78 0 0 0 .4 183v191.4a78.1 78.1 0 0 0 40.1 68l176.7 111.8 1 .6a79.3 79.3 0 0 0 77.4-.6l176.8-111.8a78.1 78.1 0 0 0 40-68V183a78.1 78.1 0 0 0-34.6-65.3Z" clip-rule="evenodd"/><path fill-rule="evenodd" d="M186.8 212.6A98.5 98.5 0 1 1 326.1 352a98.5 98.5 0 0 1-139.3-139.3Zm69.6 10.6a59 59 0 1 0 0 118.1 59 59 0 0 0 0-118.1Z" clip-rule="evenodd"/></svg>