<svg xmlns="http://www.w3.org/2000/svg" viewBox="0 0 374 374"><path fill-rule="evenodd" clip-rule="evenodd" d="M101.7 32.3A26.7 26.7 0 0 0 75 59v256a26.7 26.7 0 0 0 26.7 26.7H315a26.7 26.7 0 0 0 26.7-26.7V59A26.7 26.7 0 0 0 315 32.3H101.7ZM60.2 17.5c11-11 26-17.2 41.5-17.2H315A58.7 58.7 0 0 1 373.7 59v256a58.7 58.7 0 0 1-58.7 58.7H101.7A58.7 58.7 0 0 1 43 315V59c0-15.6 6.2-30.5 17.2-41.5Z" /><path fill-rule="evenodd" clip-rule="evenodd" d="M128.3 272.3a16 16 0 0 1 16-16h128a16 16 0 0 1 0 32h-128a16 16 0 0 1-16-16ZM166.8 124.2a58.7 58.7 0 1 1 83 83 58.7 58.7 0 0 1-83-83Zm41.5 14.8a26.7 26.7 0 1 0 0 53.3 26.7 26.7 0 0 0 0-53.3ZM.3 101.7a16 16 0 0 1 16-16h64a16 16 0 0 1 0 32h-64a16 16 0 0 1-16-16ZM.3 187a16 16 0 0 1 16-16h64a16 16 0 1 1 0 32h-64a16 16 0 0 1-16-16ZM.3 272.3a16 16 0 0 1 16-16h64a16 16 0 0 1 0 32h-64a16 16 0 0 1-16-16Z"/></svg>