<svg xmlns="http://www.w3.org/2000/svg" viewBox="0 0 512 512"><path fill-rule="evenodd" d="M139 43.9a36.6 36.6 0 0 0-36.6 36.6v351a36.6 36.6 0 0 0 36.6 36.6h292.5a36.6 36.6 0 0 0 36.6-36.6v-351a36.6 36.6 0 0 0-36.6-36.6H139ZM82 23.6C97.3 8.5 117.7 0 139 0h292.5A80.5 80.5 0 0 1 512 80.5v351a80.5 80.5 0 0 1-80.5 80.5H139a80.5 80.5 0 0 1-80.5-80.5v-351c0-21.4 8.5-41.8 23.6-57Z" clip-rule="evenodd"/><path fill-rule="evenodd" d="M175.5 373a22 22 0 0 1 22-22H373a22 22 0 0 1 0 44H197.5a22 22 0 0 1-22-22ZM228.4 169.9A80.5 80.5 0 1 1 342 283.6 80.5 80.5 0 0 1 228.4 170Zm56.9 20.3a36.6 36.6 0 1 0 0 73.1 36.6 36.6 0 0 0 0-73.1ZM0 139a22 22 0 0 1 22-22h87.7a22 22 0 1 1 0 44H22A22 22 0 0 1 0 139ZM0 256a22 22 0 0 1 22-22h87.7a22 22 0 1 1 0 44H22A22 22 0 0 1 0 256ZM0 373a22 22 0 0 1 22-22h87.7a22 22 0 1 1 0 44H22A22 22 0 0 1 0 373Z" clip-rule="evenodd"/></svg>