<svg xmlns="http://www.w3.org/2000/svg" width="20" height="20" viewBox="0 0 20 20" fill="none">
  <g clip-path="url(#clip0_603_227)">
    <path d="M16.6667 5.00004V15C16.6667 15.4421 16.4911 15.866 16.1785 16.1786C15.866 16.4911 15.442 16.6667 15 16.6667H6.66667C6.22464 16.6667 5.80072 16.4911 5.48816 16.1786C5.17559 15.866 5 15.4421 5 15V5.00004C5 4.55801 5.17559 4.13409 5.48816 3.82153C5.80072 3.50897 6.22464 3.33337 6.66667 3.33337H15C15.442 3.33337 15.866 3.50897 16.1785 3.82153C16.4911 4.13409 16.6667 4.55801 16.6667 5.00004Z" stroke="#888599" stroke-width="1.25" stroke-linecap="round" stroke-linejoin="round"/>
    <path d="M8.33334 13.3334H13.3333" stroke="#888599" stroke-width="1.25" stroke-linecap="round" stroke-linejoin="round"/>
    <path d="M9.16666 9.16667C9.16666 9.60869 9.34225 10.0326 9.65481 10.3452C9.96737 10.6577 10.3913 10.8333 10.8333 10.8333C11.2754 10.8333 11.6993 10.6577 12.0118 10.3452C12.3244 10.0326 12.5 9.60869 12.5 9.16667C12.5 8.72464 12.3244 8.30072 12.0118 7.98816C11.6993 7.6756 11.2754 7.5 10.8333 7.5C10.3913 7.5 9.96737 7.6756 9.65481 7.98816C9.34225 8.30072 9.16666 8.72464 9.16666 9.16667Z" stroke="#888599" stroke-width="1.25" stroke-linecap="round" stroke-linejoin="round"/>
    <path d="M3.33334 6.66663H5.83334" stroke="#888599" stroke-width="1.25" stroke-linecap="round" stroke-linejoin="round"/>
    <path d="M3.33334 10H5.83334" stroke="#888599" stroke-width="1.25" stroke-linecap="round" stroke-linejoin="round"/>
    <path d="M3.33334 13.3334H5.83334" stroke="#888599" stroke-width="1.25" stroke-linecap="round" stroke-linejoin="round"/>
  </g>
  <defs>
    <clipPath id="clip0_603_227">
      <rect width="20" height="20" fill="white"/>
    </clipPath>
  </defs>
</svg>