<svg xmlns="http://www.w3.org/2000/svg" width="20" height="20" viewBox="0 0 20 20" fill="none">
  <path d="M7.5 4.16667H5.83333C5.3913 4.16667 4.96738 4.34226 4.65482 4.65482C4.34226 4.96738 4.16666 5.39131 4.16666 5.83333V15.8333C4.16666 16.2754 4.34226 16.6993 4.65482 17.0118C4.96738 17.3244 5.3913 17.5 5.83333 17.5H14.1667C14.6087 17.5 15.0326 17.3244 15.3452 17.0118C15.6577 16.6993 15.8333 16.2754 15.8333 15.8333V5.83333C15.8333 5.39131 15.6577 4.96738 15.3452 4.65482C15.0326 4.34226 14.6087 4.16667 14.1667 4.16667H12.5" stroke="#888599" stroke-width="1.25" stroke-linecap="round" stroke-linejoin="round"/>
  <path d="M7.5 4.16667C7.5 3.72464 7.6756 3.30072 7.98816 2.98816C8.30072 2.67559 8.72464 2.5 9.16667 2.5H10.8333C11.2754 2.5 11.6993 2.67559 12.0118 2.98816C12.3244 3.30072 12.5 3.72464 12.5 4.16667C12.5 4.60869 12.3244 5.03262 12.0118 5.34518C11.6993 5.65774 11.2754 5.83333 10.8333 5.83333H9.16667C8.72464 5.83333 8.30072 5.65774 7.98816 5.34518C7.6756 5.03262 7.5 4.60869 7.5 4.16667Z" stroke="#888599" stroke-width="1.25" stroke-linecap="round" stroke-linejoin="round"/>
  <path d="M7.5 14.1667V10" stroke="#fff" stroke-width="1.25" stroke-linecap="round" stroke-linejoin="round"/>
  <path d="M10 14.1667V13.3333" stroke="#fff" stroke-width="1.25" stroke-linecap="round" stroke-linejoin="round"/>
  <path d="M12.5 14.1667V11.6667" stroke="#fff" stroke-width="1.25" stroke-linecap="round" stroke-linejoin="round"/>
</svg>