<svg xmlns="http://www.w3.org/2000/svg" viewBox="0 0 332 416"><path fill-rule="evenodd" clip-rule="evenodd" d="M17.8 59.8c11-11 26-17.1 41.5-17.1H102a16 16 0 1 1 0 32H59.3a26.7 26.7 0 0 0-26.6 26.6v256A26.7 26.7 0 0 0 59.3 384h213.4a26.7 26.7 0 0 0 26.6-26.7v-256a26.7 26.7 0 0 0-26.6-26.6H230a16 16 0 0 1 0-32h42.7a58.7 58.7 0 0 1 58.6 58.6v256a58.7 58.7 0 0 1-58.6 58.7H59.3A58.7 58.7 0 0 1 .7 357.3v-256C.7 85.8 6.8 71 17.8 59.8Z" /><path fill-rule="evenodd" clip-rule="evenodd" d="M144.7 32a26.7 26.7 0 1 0 0 53.3h42.6a26.7 26.7 0 1 0 0-53.3h-42.6Zm-41.5-14.8c11-11 26-17.2 41.5-17.2h42.6a58.7 58.7 0 1 1 0 117.3h-42.6a58.7 58.7 0 0 1-41.5-100.1ZM102 192a16 16 0 0 1 16 16v106.7a16 16 0 0 1-32 0V208a16 16 0 0 1 16-16ZM166 277.3a16 16 0 0 1 16 16v21.4a16 16 0 0 1-32 0v-21.4a16 16 0 0 1 16-16ZM230 234.7a16 16 0 0 1 16 16v64a16 16 0 0 1-32 0v-64a16 16 0 0 1 16-16Z"/></svg>