<svg xmlns="http://www.w3.org/2000/svg" width="32" height="32" fill="none"><rect width="32" height="32" fill="#fff" rx="16"/><mask id="a" width="28" height="28" x="2" y="2" maskUnits="userSpaceOnUse" style="mask-type:luminance"><path fill="#fff" d="M2 2h28v28H2V2Z"/></mask><g mask="url(#a)"><path fill="#121D3A" d="M16.001 2C8.285 2 2 8.285 2 15.999S8.285 30 16.001 30C23.715 30 30 23.713 30 15.999 30 8.285 23.715 2 16.001 2Zm0 26.808c-7.06 0-12.809-5.749-12.809-12.81 0-7.06 5.749-12.808 12.81-12.808 7.057 0 12.806 5.749 12.806 12.809s-5.749 12.809-12.807 12.809Z"/></g><path fill="#121D3A" d="M18.95 17.847s-.09-.03-.18-.15a.601.601 0 0 0-.833-.06.604.604 0 0 0-.06.834c.18.21.387.389.626.476a1.573 1.573 0 0 1 .953 1.669c-.03.299-.238.983-1.133 1.102-.297.03-.596 0-.863-.12-.12-.057-.21-.087-.299-.147-.267-.15-.594-.329-1.012-.359h-.088c-.419.03-.745.21-1.015.36-.087.059-.207.117-.297.146-.237.09-.506.15-.745.12a.58.58 0 0 0-.624.566.58.58 0 0 0 .566.626c.447.03.893-.03 1.31-.21.15-.059.299-.147.416-.206.18-.09.36-.18.506-.21.15.03.3.12.507.21.12.06.269.147.419.207.356.15.713.24 1.102.24.147 0 .267 0 .416-.03 1.19-.18 1.996-.984 2.145-2.146 0-1.222-.686-2.441-1.818-2.918ZM13.587 18.919c.716-.299 1.162-1.312 1.342-1.728.297-.746.596-1.043 1.102-1.043h.06c.416.03.683.237.923.744.147.299.506.418.803.269.3-.15.417-.506.27-.806-.447-.892-1.103-1.369-1.996-1.399h-.12c-1.431.09-1.967 1.37-2.115 1.818-.239.564-.536.983-.685 1.073a2.828 2.828 0 0 0-1.609 1.875c-.21.803-.06 1.639.417 2.235.12.147.299.237.476.237.12 0 .24-.03.359-.118.267-.209.327-.566.117-.835a1.444 1.444 0 0 1-.207-1.222c.09-.506.417-.893.863-1.1ZM11.919 14.837c-.297-1.43-1.34-2.472-2.502-2.472-.12 0-.237 0-.327.03-.536.09-.983.417-1.312.893-.446.656-.596 1.519-.416 2.414.297 1.43 1.34 2.472 2.501 2.472.12 0 .24 0 .33-.03.536-.09.982-.417 1.309-.893.446-.656.596-1.549.417-2.414Zm-1.4 1.728a.844.844 0 0 1-.536.387c-.536.09-1.252-.477-1.459-1.52-.12-.565-.03-1.131.237-1.518a.85.85 0 0 1 .536-.387h.12c.506 0 1.162.566 1.342 1.52.117.595.03 1.131-.24 1.518ZM11.205 12.156c.12.299.477.446.774.299a.569.569 0 0 0 .299-.776 2.626 2.626 0 0 1-.21-.833c-.03-.506.06-1.042.3-1.401.117-.178.356-.507.713-.536.359-.03.626.239.775.388.268.327.477.833.507 1.34.03.506-.06 1.042-.3 1.401-.117.178-.356.506-.713.536-.09 0-.18 0-.269-.03-.297-.09-.656.058-.743.387-.09.327.06.656.386.744.18.06.387.09.566.09h.15c.654-.06 1.25-.447 1.636-1.103.36-.596.506-1.34.449-2.115a3.826 3.826 0 0 0-.776-2.025c-.476-.566-1.132-.863-1.788-.833-.653.06-1.25.446-1.636 1.102-.359.596-.508 1.34-.449 2.115.06.476.15.893.33 1.25ZM20.081 14.837c-.179.895-.03 1.758.417 2.414.329.476.805.803 1.312.893.117.03.237.03.356.03 1.162 0 2.205-1.013 2.502-2.472.09-.418.09-.865.03-1.252-.06-.356-.357-.596-.684-.536a.628.628 0 0 0-.508.686c.03.267.03.566-.028.833-.18.923-.865 1.609-1.461 1.519a.85.85 0 0 1-.536-.387c-.267-.386-.357-.952-.238-1.519.178-.922.864-1.608 1.46-1.518.06 0 .15.03.209.06.297.147.654.057.803-.24.15-.297.06-.656-.237-.803-.18-.09-.359-.15-.566-.21-1.252-.179-2.504.893-2.83 2.502ZM18.533 13.794h.15c1.249 0 2.291-1.22 2.411-2.828.06-.776-.09-1.521-.447-2.115-.386-.656-.982-1.043-1.638-1.103-1.312-.12-2.442 1.16-2.561 2.829-.06.775.09 1.519.446 2.115.387.626.983 1.042 1.639 1.102Zm-.893-3.128c.087-1.042.713-1.758 1.22-1.758h.06c.356.03.595.33.715.537.207.388.327.895.297 1.401-.09 1.072-.743 1.786-1.28 1.756-.359-.028-.596-.327-.715-.536-.24-.357-.327-.893-.297-1.4Z"/><path fill="#121D3A" d="M23.119 10.37c-.09-2.474-1.728-4.47-3.93-4.649-1.193-.087-2.325.36-3.188 1.222-.865-.863-1.997-1.31-3.187-1.222C10.639 5.901 9 7.896 8.88 10.37c-.06 0-.12.03-.18.03-1.042.177-1.995.803-2.62 1.726-.744 1.102-1.013 2.533-.714 3.933.327 1.668 1.369 3.037 2.74 3.693a6.923 6.923 0 0 0 6.911 6.524h2.026c3.693 0 6.73-2.92 6.91-6.554 1.34-.655 2.322-2.025 2.651-3.633.267-1.4.03-2.86-.715-3.933-.626-.923-1.55-1.55-2.622-1.726-.03-.03-.09-.03-.149-.06Zm1.788 2.442c.566.833.744 1.935.536 3.037-.269 1.372-1.162 2.504-2.294 2.95a.612.612 0 0 0-.387.567v.03a5.752 5.752 0 0 1-5.748 5.748h-2.026c-3.157 0-5.75-2.561-5.75-5.748v-.12c0-.03 0-.03-.028-.06 0-.03 0-.03-.03-.06 0-.03-.03-.03-.03-.06s-.03-.03-.03-.06c.06-.06.03-.06.03-.06l-.03-.03-.03-.027c-.03 0-.03-.03-.06-.03 0 0-.03-.03-.06-.03s-.03-.03-.06-.03c-1.161-.418-2.054-1.548-2.351-2.95-.21-1.102-.03-2.204.536-3.037.446-.656 1.1-1.103 1.846-1.223.15-.03.326-.03.476-.03h.06a.61.61 0 0 0 .446-.177c.12-.12.18-.299.18-.446-.12-2.087 1.102-3.843 2.828-3.993 1.015-.09 1.968.417 2.624 1.312.237.297.743.297.952 0 .654-.895 1.639-1.372 2.621-1.312 1.699.15 2.948 1.878 2.829 3.993a.607.607 0 0 0 .626.624h.06c.15 0 .329 0 .476.03.686.09 1.342.536 1.788 1.192Z"/></svg>