<svg width="25" height="25" viewBox="0 0 25 25" fill="none" xmlns="http://www.w3.org/2000/svg">
<g clip-path="url(#clip0_5432_1863)">
<path d="M23.9374 12.7763C23.9374 11.9605 23.8713 11.1404 23.7302 10.3379H12.4114V14.9589H18.8931C18.6241 16.4492 17.7599 17.7676 16.4944 18.6054V21.6037H20.3614C22.6322 19.5137 23.9374 16.4272 23.9374 12.7763Z" fill="#6857D9"/>
<path d="M12.4115 24.5008C15.6479 24.5008 18.3773 23.4382 20.3659 21.6039L16.4989 18.6055C15.4231 19.3375 14.0341 19.752 12.4159 19.752C9.28527 19.752 6.63085 17.6399 5.67844 14.8003H1.68799V17.8912C3.7251 21.9434 7.87428 24.5008 12.4115 24.5008Z" fill="#34A853"/>
<path d="M5.67392 14.8002C5.17125 13.3099 5.17125 11.696 5.67392 10.2057V7.11475H1.68788C-0.0141237 10.5055 -0.0141237 14.5004 1.68788 17.8912L5.67392 14.8002Z" fill="#FBBC04"/>
<path d="M12.4115 5.24966C14.1223 5.2232 15.7758 5.86697 17.0148 7.04867L20.4409 3.62262C18.2715 1.5855 15.3922 0.465534 12.4115 0.500809C7.87428 0.500809 3.7251 3.05822 1.68799 7.11481L5.67403 10.2058C6.62203 7.36173 9.28086 5.24966 12.4115 5.24966Z" fill="#EA4335"/>
</g>
<defs>
<clipPath id="clip0_5432_1863">
<rect width="24" height="24" fill="white" transform="translate(0.171387 0.5)"/>
</clipPath>
</defs>
</svg>
