<svg xmlns="http://www.w3.org/2000/svg" viewBox="0 0 406 512"><path clip-rule="evenodd" d="M176 32a37.3 37.3 0 1 0 0 74.7h53.3a37.3 37.3 0 0 0 0-74.7H176Zm-49-11.7C140 7.3 157.6 0 176 0h53.3a69.3 69.3 0 0 1 67.5 53.3H336a69.3 69.3 0 0 1 69.3 69.4v320A69.3 69.3 0 0 1 336 512H69.3A69.3 69.3 0 0 1 0 442.7v-320a69.3 69.3 0 0 1 69.3-69.4h39.2c3-12.4 9.3-23.8 18.5-33Zm-18.5 65H69.3A37.3 37.3 0 0 0 32 122.7v320A37.3 37.3 0 0 0 69.3 480H336a37.3 37.3 0 0 0 37.3-37.3v-320A37.3 37.3 0 0 0 336 85.3h-39.2a69.4 69.4 0 0 1-67.5 53.4H176a69.3 69.3 0 0 1-67.5-53.4ZM106.7 256a16 16 0 0 1 16-16h160a16 16 0 0 1 0 32h-160a16 16 0 0 1-16-16Zm0 106.6a16 16 0 0 1 16-16h160a16 16 0 0 1 0 32h-160a16 16 0 0 1-16-16Z"/></svg>