<svg xmlns="http://www.w3.org/2000/svg" viewBox="0 0 406 512"><path clip-rule="evenodd" d="M69.3 32A37.3 37.3 0 0 0 32 69.3v373.4A37.3 37.3 0 0 0 69.3 480H336a37.3 37.3 0 0 0 37.3-37.3V69.3A37.3 37.3 0 0 0 336 32H69.3Zm-49-11.7C33.3 7.3 51 0 69.3 0H336a69.3 69.3 0 0 1 69.3 69.3v373.4A69.3 69.3 0 0 1 336 512H69.3A69.3 69.3 0 0 1 0 442.7V69.3c0-18.4 7.3-36 20.3-49Zm86.4 102.4a16 16 0 0 1 16-16h160a16 16 0 1 1 0 32h-160a16 16 0 0 1-16-16Zm0 106.6a16 16 0 0 1 16-16h160a16 16 0 0 1 0 32h-160a16 16 0 0 1-16-16Zm0 106.7a16 16 0 0 1 16-16h106.6a16 16 0 0 1 0 32H122.7a16 16 0 0 1-16-16Z"/></svg>