<svg xmlns="http://www.w3.org/2000/svg" viewBox="0 0 513 513"><path clip-rule="evenodd" d="M401.6 85.6A224 224 0 0 0 73 385a16 16 0 0 1 1.6 15.6l-32.1 74 105.3-18.8a16 16 0 0 1 9.8 1.4A224 224 0 0 0 401.6 85.6ZM252 0a256 256 0 1 1-103.6 488.2L18.8 511.3a16 16 0 0 1-17.5-22.1l40.5-93.3A256 256 0 0 1 252 0Zm-83.4 154.8a29.3 29.3 0 0 1 50 20.8v26.6a29.3 29.3 0 0 1-23 28.7 117.3 117.3 0 0 0 85 85.1 29.3 29.3 0 0 1 28.7-23.1H336a29.3 29.3 0 0 1 0 58.7h-26.7A149.3 149.3 0 0 1 160 202.2v-26.6c0-7.8 3-15.3 8.6-20.8Z"/></svg>