<svg xmlns="http://www.w3.org/2000/svg" width="112" height="14" fill="none"><path fill="#121D3A" d="M15.77.486h2.743L15.04 12.798h-3.264L9.24 4.514l-2.536 8.284h-3.23L0 .486h2.743l2.434 9.309L7.972.486h2.535l2.814 9.377L15.77.486ZM24.192 3.942a4.3 4.3 0 0 1 1.737.356 4.534 4.534 0 0 1 2.387 2.413c.237.55.356 1.138.356 1.763 0 .626-.119 1.214-.356 1.763a4.522 4.522 0 0 1-2.387 2.413 4.3 4.3 0 0 1-1.737.356 4.337 4.337 0 0 1-1.753-.356 4.513 4.513 0 0 1-1.424-.972 4.651 4.651 0 0 1-.965-1.441 4.387 4.387 0 0 1-.356-1.763c0-.625.118-1.213.356-1.763.237-.55.559-1.03.965-1.44.405-.411.88-.735 1.424-.973a4.337 4.337 0 0 1 1.753-.356Zm0 6.963c.29 0 .558-.058.806-.174a2.145 2.145 0 0 0 1.113-1.206c.11-.284.166-.6.166-.947 0-.346-.056-.67-.166-.972a2.534 2.534 0 0 0-.453-.79 2.27 2.27 0 0 0-.66-.54 1.678 1.678 0 0 0-.806-.2c-.29 0-.562.068-.817.2a2.227 2.227 0 0 0-.668.54 2.586 2.586 0 0 0-.452.79c-.11.301-.164.626-.164.972 0 .347.055.663.164.947a2.111 2.111 0 0 0 1.12 1.207c.255.115.527.173.817.173ZM41.246 3.456c0-.604.09-1.122.268-1.555.18-.435.42-.794.72-1.077A2.8 2.8 0 0 1 43.277.2c.395-.133.812-.2 1.25-.2.267 0 .533.023.799.07.266.046.533.114.8.206l-.192 1.755-.572-.086a4.453 4.453 0 0 0-.468-.036c-.44 0-.762.107-.965.322-.202.213-.304.523-.304.928v1.025h2.31V6.32h-2.31v6.477h-2.379V6.321h-1.128V5.052l1.128-.868v-.728ZM51.77 3.942c.649 0 1.24.13 1.771.39.532.26.99.602 1.37 1.024.384.424.68.91.887 1.46.21.55.315 1.113.315 1.692 0 .348-.047.72-.14 1.113h-6.147c.23.394.56.727.988.998.43.273.893.409 1.391.409.497 0 .934-.04 1.31-.123a7.584 7.584 0 0 0 1.07-.312l.797 1.475a4.98 4.98 0 0 1-1.466.696 6.24 6.24 0 0 1-1.763.242 5.08 5.08 0 0 1-3.456-1.318 4.468 4.468 0 0 1-1.042-1.44 4.208 4.208 0 0 1-.383-1.774c0-.614.116-1.195.346-1.745a4.473 4.473 0 0 1 .965-1.443c.41-.41.888-.737 1.433-.98a4.263 4.263 0 0 1 1.755-.364Zm1.964 3.82a2.449 2.449 0 0 0-.749-1.215 1.799 1.799 0 0 0-1.214-.47c-.463 0-.883.157-1.259.47a2.372 2.372 0 0 0-.775 1.215h3.997ZM66.897.12v12.678h-2.049l-.348-.746c-.266.277-.634.506-1.103.686a4.09 4.09 0 0 1-1.466.268 4.064 4.064 0 0 1-3.048-1.329 4.562 4.562 0 0 1-.887-1.44 4.827 4.827 0 0 1-.32-1.763c0-.625.107-1.213.32-1.763.215-.55.51-1.03.887-1.44a4.065 4.065 0 0 1 3.047-1.329c.545 0 1.028.064 1.449.192.422.127.796.34 1.12.64V.12h2.398ZM64.5 8.508c0-.45-.059-.83-.175-1.136a1.878 1.878 0 0 0-.486-.747 1.903 1.903 0 0 0-.72-.418 2.88 2.88 0 0 0-.876-.13c-.312 0-.605.064-.877.192a2.315 2.315 0 0 0-1.19 1.277 2.509 2.509 0 0 0-.175.928c0 .337.058.65.174.939.116.29.276.542.479.756.203.213.44.384.712.513.272.126.565.19.877.19.625 0 1.155-.194 1.588-.583.435-.388.658-.982.669-1.781ZM79.802 10.4c.554 0 1.098-.127 1.63-.382.534-.254 1.073-.682 1.617-1.284l1.7 1.615c-.682.88-1.46 1.547-2.334 2a5.829 5.829 0 0 1-2.702.675c-.834 0-1.616-.17-2.345-.512a6.115 6.115 0 0 1-1.9-1.38 6.574 6.574 0 0 1-1.727-4.48c0-.87.158-1.686.475-2.45a6.64 6.64 0 0 1 1.295-2.015 6.023 6.023 0 0 1 1.927-1.37 5.66 5.66 0 0 1 2.364-.505 5.74 5.74 0 0 1 2.212.434c.7.29 1.387.77 2.06 1.44l-1.53 1.86c-.487-.453-.947-.757-1.38-.913a3.995 3.995 0 0 0-1.362-.234c-.476 0-.925.099-1.347.297-.423.196-.79.462-1.103.798a3.72 3.72 0 0 0-.738 1.188 4.004 4.004 0 0 0-.268 1.47 3.869 3.869 0 0 0 1.006 2.647c.312.341.68.61 1.103.808.422.196.871.294 1.347.294ZM95.292 4.15a3.734 3.734 0 0 1-.627 2.093 3.49 3.49 0 0 1-.71.78 3.862 3.862 0 0 1-.902.549l4.08 5.226h-3.074l-3.804-4.966h-1.18v4.966h-2.64V.486h5.315a3.49 3.49 0 0 1 2.507 1.069 3.712 3.712 0 0 1 1.035 2.595ZM91.42 5.434c.334 0 .623-.123.866-.371.244-.25.366-.554.366-.913 0-.348-.122-.646-.366-.895a1.168 1.168 0 0 0-.866-.374h-2.346v2.553h2.346ZM109.517.486H112v12.312h-2.624V4.67l-2.935 4.116h-2.101l-2.97-3.994v8.006h-2.639V.486h2.502l4.168 5.68 4.116-5.68Z"/><mask id="a" width="9" height="10" x="30" y="4" maskUnits="userSpaceOnUse" style="mask-type:luminance"><path fill="#fff" d="M30.38 4.528h8.521v8.52h-8.52v-8.52Z"/></mask><g mask="url(#a)"><path fill="#121D3A" d="M34.641 4.528a4.267 4.267 0 0 0-4.26 4.26 4.267 4.267 0 0 0 4.26 4.26 4.267 4.267 0 0 0 4.26-4.26 4.267 4.267 0 0 0-4.26-4.26Zm0 8.158a3.903 3.903 0 0 1-3.897-3.898A3.903 3.903 0 0 1 34.64 4.89a3.903 3.903 0 0 1 3.897 3.898 3.903 3.903 0 0 1-3.897 3.898Z"/></g><path fill="#121D3A" d="M35.538 9.35s-.027-.009-.054-.045a.183.183 0 0 0-.254-.018.184.184 0 0 0-.018.253.479.479 0 0 0 .19.145c.236.1.318.336.29.508a.373.373 0 0 1-.344.335c-.09.01-.181 0-.263-.036-.036-.018-.063-.027-.09-.045a.722.722 0 0 0-.309-.109h-.026a.728.728 0 0 0-.31.11.405.405 0 0 1-.09.044.495.495 0 0 1-.227.036.176.176 0 0 0-.19.173c-.008.1.073.19.173.19.136.01.272-.009.398-.063.046-.019.091-.045.127-.064a.706.706 0 0 1 .154-.063c.046.009.091.036.154.063.037.019.082.045.128.064a.852.852 0 0 0 .335.072c.045 0 .081 0 .127-.009.362-.054.607-.299.653-.652 0-.372-.21-.743-.554-.888ZM33.907 9.677c.218-.091.353-.4.408-.526.09-.227.181-.317.335-.317h.019c.126.009.208.072.28.226a.182.182 0 1 0 .326-.163c-.135-.272-.335-.417-.606-.426h-.037c-.435.027-.599.417-.643.553-.073.172-.163.3-.209.326a.86.86 0 0 0-.49.571.776.776 0 0 0 .127.68.191.191 0 0 0 .145.072c.037 0 .073-.009.11-.036.08-.063.099-.172.035-.254a.44.44 0 0 1-.063-.371.453.453 0 0 1 .263-.335ZM33.399 8.435c-.09-.435-.408-.753-.761-.753a.61.61 0 0 0-.499.28.962.962 0 0 0-.126.736c.09.435.407.752.76.752.037 0 .073 0 .1-.01a.608.608 0 0 0 .4-.27.97.97 0 0 0 .126-.735Zm-.426.525a.257.257 0 0 1-.163.118c-.163.027-.38-.145-.444-.462a.606.606 0 0 1 .072-.462.259.259 0 0 1 .163-.118h.037c.154 0 .353.172.408.462a.6.6 0 0 1-.073.462ZM33.182 7.619a.173.173 0 0 0 .235.09c.091-.036.136-.144.091-.235a.8.8 0 0 1-.063-.254.724.724 0 0 1 .09-.426c.036-.054.11-.154.218-.163.109-.01.19.072.236.118.08.1.145.253.154.408a.724.724 0 0 1-.091.426c-.036.054-.109.154-.217.163-.028 0-.055 0-.082-.009-.09-.027-.2.018-.227.118-.027.1.019.2.118.226a.568.568 0 0 0 .172.027h.046a.65.65 0 0 0 .498-.335 1.09 1.09 0 0 0 .136-.644 1.164 1.164 0 0 0-.236-.616.675.675 0 0 0-.544-.254.65.65 0 0 0-.498.336c-.109.181-.154.407-.136.643.018.145.045.272.1.38ZM35.883 8.435a.962.962 0 0 0 .127.734c.1.145.245.245.399.272.035.009.072.009.108.009.354 0 .671-.308.761-.752.028-.128.028-.263.01-.381-.019-.109-.109-.181-.208-.163a.19.19 0 0 0-.155.208c.009.082.009.173-.008.254-.055.28-.264.49-.445.462a.259.259 0 0 1-.163-.117.606.606 0 0 1-.072-.463c.053-.28.262-.49.444-.462.018 0 .045.01.063.018.09.045.2.018.245-.072.045-.09.018-.2-.072-.245a.981.981 0 0 0-.173-.064c-.38-.054-.762.272-.861.762ZM35.412 8.117h.045c.38 0 .698-.371.734-.86a1.09 1.09 0 0 0-.136-.644.65.65 0 0 0-.498-.335c-.4-.037-.743.353-.78.86a1.09 1.09 0 0 0 .136.644c.118.19.299.317.499.335Zm-.272-.951c.026-.318.217-.535.371-.535h.018c.109.009.182.1.218.163.063.118.1.272.09.426-.027.326-.226.544-.389.534-.11-.008-.181-.099-.218-.163-.073-.108-.1-.271-.09-.425Z"/><path fill="#121D3A" d="M36.807 7.075c-.027-.753-.526-1.36-1.196-1.414a1.233 1.233 0 0 0-.97.372 1.234 1.234 0 0 0-.97-.372c-.661.054-1.16.661-1.196 1.414-.019 0-.037.01-.055.01a1.221 1.221 0 0 0-.798.525 1.563 1.563 0 0 0-.217 1.196c.1.508.417.925.834 1.124a2.107 2.107 0 0 0 2.103 1.986h.617A2.109 2.109 0 0 0 37.06 9.92c.408-.2.707-.616.807-1.106.081-.425.01-.87-.218-1.196a1.2 1.2 0 0 0-.797-.526c-.01-.009-.028-.009-.046-.018Zm.544.743c.173.254.227.59.163.925-.081.417-.353.761-.698.897a.186.186 0 0 0-.117.173v.009c0 .96-.78 1.749-1.75 1.749h-.616c-.96 0-1.75-.78-1.75-1.75V9.786c0-.009 0-.009-.008-.018 0-.009 0-.009-.01-.018 0-.01-.008-.01-.008-.018 0-.01-.01-.01-.01-.018.019-.019.01-.019.01-.019l-.01-.009-.009-.008c-.009 0-.009-.01-.018-.01 0 0-.009-.008-.018-.008-.01 0-.01-.01-.018-.01-.354-.127-.626-.47-.716-.897-.064-.336-.01-.671.163-.925a.846.846 0 0 1 .562-.371c.045-.01.1-.01.145-.01h.018c.055 0 .1-.018.136-.054a.2.2 0 0 0 .054-.135c-.036-.635.336-1.17.861-1.215.309-.028.599.126.798.399.072.09.227.09.29 0a.927.927 0 0 1 .798-.4c.517.046.897.572.86 1.216a.185.185 0 0 0 .191.19h.018c.046 0 .1 0 .145.009a.81.81 0 0 1 .544.362Z"/></svg>