<svg xmlns="http://www.w3.org/2000/svg" viewBox="0 0 10923 10923"><path d="M5461.2 0C2451.8 0 0 2451.8 0 5461.4c0 3009.5 2451.8 5461.3 5461.2 5461.3 3009.7 0 5461.5-2451.8 5461.5-5461.3C10922.7 2451.8 8470.9 0 5461.2 0Zm0 10458c-2753.9 0-4996.5-2242.6-4996.5-4996.6 0-2754 2242.6-4996.7 4996.5-4996.7 2754.2 0 4996.8 2242.6 4996.8 4996.7 0 2754-2242.6 4996.6-4996.8 4996.6Z"/><path d="M6611.8 6181.8s-34.9-11.7-69.8-58c-81.4-93.1-232.4-104.7-325.4-23.3-92.9 81.3-104.6 232.3-23.2 325.2 69.8 81.4 151.2 151.2 244 186 302.2 127.9 406.8 429.9 371.9 650.7-11.6 116.3-93 383.5-441.5 430-116.3 11.6-232.5 0-337.1-46.5-46.4-23.2-81.3-34.9-116-58.1-104.8-58.2-232.6-127.8-395.3-139.5h-34.7c-162.7 11.7-290.7 81.3-395.3 139.5a547 547 0 0 1-116 58.1c-93 35-197.6 58.1-290.5 46.4-128-11.5-244 93-244 220.9-11.8 127.8 92.8 244 220.6 244 174.4 11.5 348.6-11.7 511.3-81.3 58.1-23.3 116.3-58.2 162.7-81.4 69.8-34.9 139.5-69.8 197.6-81.3 58.1 11.5 116.3 46.4 197.6 81.3 46.4 23.2 104.6 58.1 162.5 81.4 139.5 58 279 92.8 430 92.8 58.1 0 104.5 0 162.7-11.5 464.8-69.8 778.5-383.5 836.7-836.7 0-476.4-267.3-952.8-708.8-1138.7ZM4520.2 6600.1c278.7-116.3 453.1-511.3 522.8-674 116.2-290.5 232.3-406.7 430-406.7h23.1c162.7 11.7 267.3 93 360.3 290.5a233 233 0 0 0 313.7 104.7 233 233 0 0 0 104.6-313.9c-174.2-348.6-430-534.5-778.6-546h-46.4c-557.7 34.7-766.8 534.5-825 708.7-93 220.8-209.1 383.5-267.2 418.5-314 139.3-534.6 395-627.6 731.9-81.3 313.9-23.2 639 162.7 871.6 46.4 58.1 116.3 92.9 186 92.9a223 223 0 0 0 139.4-46.5c104.6-81.3 127.8-220.8 46.4-325.4-92.8-127.7-127.8-302.1-81.3-476.3 34.9-197.7 162.7-348.7 337-430ZM3869.4 5008c-116.3-557.7-523-964.4-976.2-964.4-46.4 0-92.8 0-127.8 11.7-209 35-383.3 162.7-511.3 348.6-174.2 255.6-232.3 592.7-162.7 941.3 116.3 557.7 523 964.4 976.2 964.4 46.5 0 92.9 0 127.8-11.7 209.1-34.7 383.5-162.7 511.3-348.6 174.4-255.5 232.3-604.2 162.7-941.2Zm-546.2 674a331 331 0 0 1-209.1 151.2c-209.2 34.8-488.1-185.9-569.5-592.6-46.4-220.8-11.5-441.7 93-592.7a330.7 330.7 0 0 1 209.2-151h46.4c197.6 0 453.2 220.7 523 592.5 46.5 232.5 11.5 441.7-93 592.7ZM3590.4 3962.3c46.7 116.2 186 174.3 302.2 116.2 116.3-46.4 174.4-185.9 116.3-302.2-46.6-104.5-69.8-209-81.4-325.2-11.7-197.6 23.3-406.7 116.1-546.2 46.6-69.6 139.5-197.6 279-209.1 139.4-11.7 244 92.9 302.1 151 104.6 127.8 186 325.4 197.5 523 11.7 197.4-23.3 406.5-116.1 546-46.6 69.8-139.5 197.6-279 209.1-34.9 0-69.6 0-104.5-11.5-116.3-34.9-255.6 23.3-290.5 151-35 127.8 23.2 255.8 151 290.5a731.5 731.5 0 0 0 220.8 35h58.2c255.5-23.3 488-174.3 639-430 139.5-232.4 197.6-522.8 174.2-825-23.2-302.2-139.3-581-302-790.3-185.9-220.6-441.6-336.9-697.2-325.2-255.7 23.2-488 174.2-639 430-139.5 232.3-197.7 522.8-174.4 825 23.2 185.9 58 348.6 127.7 487.9ZM7053.3 5008c-69.7 348.7-11.7 685.8 162.6 941.3 127.8 186 313.7 313.9 511.4 348.6 46.4 11.7 92.8 11.7 139.4 11.7 453.2 0 860-395 976-964.4 35-162.7 35-337.1 11.7-488.1-23.2-139.5-139.5-232.4-267.3-209.1-127.7 23.2-209 139.4-197.6 267.2 11.7 104.6 11.7 220.8-11.5 325.4-69.8 360.1-337 627.4-569.4 592.6a331 331 0 0 1-209.1-151.1c-104.6-151-139.5-371.8-93-592.7 69.6-360 337-627.3 569.4-592.4 23.2 0 58 11.5 81.3 23.2 116 58 255.6 23.2 313.7-93 58.1-116.3 23.2-255.6-92.9-313.8-69.8-34.9-139.5-58-220.8-81.3-488-69.8-976.2 348.6-1104 976ZM6449 4601.5h58c488.1 0 894.9-476.5 941.3-1104 23.2-302-34.7-592.6-174.2-825-151.2-255.7-383.5-406.7-639.1-429.9-511.3-46.6-953 453.2-999.4 1103.8-23.2 302.2 35 592.7 174.2 825.2 151.2 244 383.6 406.5 639.3 430Zm-348.5-1220.2c34.7-406.7 278.8-685.5 476.4-685.5h23.2c139.5 11.5 232.3 127.8 279 209.1 81.3 151 127.7 348.6 116 546.3-34.7 418.2-290.4 697.2-499.6 685.5-139.4-11.7-232.3-127.8-279-209.2-92.8-139.4-127.7-348.6-116-546.2Z"/><path d="M8238.6 3265.2c-35-964.4-674-1743-1534-1812.8-464.8-34.8-906.3 139.4-1243.4 476.4-336.9-337-778.3-511.2-1243.2-476.4-848.2 69.8-1487.3 848.4-1533.9 1812.8-23.2 0-46.4 11.5-69.7 11.5-406.7 69.7-778.5 313.7-1022.5 674-290.5 430-395 987.7-279 1534 128 650.5 534.5 1185 1069.2 1440.8 81.2 1417.6 1255 2544.8 2695.8 2544.8h790c1441 0 2626.2-1138.9 2696-2556.5 522.9-255.6 906.4-790 1034.2-1417.6 104.5-546 11.7-1115.5-279-1534-243.8-360-604.1-604.1-1022.4-673.8-11.7-11.7-35-11.7-58.1-23.2Zm697.2 952.8c220.6 325.4 290.5 755.3 209.1 1185.3-104.5 534.5-453.2 976-894.8 1150.4-92.9 34.7-151 127.8-151 220.6v11.7c0 1231.7-999.4 2242.6-2242.6 2242.6h-790.3c-1231.7 0-2242.6-999.2-2242.6-2242.6v-46.4c0-11.7 0-11.7-11.7-23.2 0-11.7 0-11.7-11.5-23.4 0-11.6-11.7-11.6-11.7-23.3 0-11.5-11.5-11.5-11.5-23.2 23.2-23.2 11.5-23.2 11.5-23.2l-23.3-23.2c-11.5 0-11.5-11.7-23.2-11.7 0 0-11.5-11.5-23.2-11.5s-11.7-11.7-23.2-11.7c-453.2-162.7-801.8-604.2-918-1150.4-81.4-430-11.5-859.9 209-1185.1 174.5-255.7 430-430 720.5-476.6 58.1-11.5 128-11.5 186-11.5h23.3c69.7 0 127.8-23.2 174.2-69.8 46.5-46.5 69.7-116.1 69.7-174.2-46.4-813.5 430-1499 1104-1557.1 395-35 767 162.7 1022.5 511.3 93 116.2 290.5 116.2 371.9 0 255.7-348.7 639-534.6 1022.6-511.4 662.3 58.2 1150.3 732.2 1103.9 1557.2 0 69.6 23.2 127.8 69.7 174.2 46.4 46.6 104.5 69.8 174.3 69.8h23.3c58 0 127.7 0 185.9 11.5 267.2 35 522.8 209.2 697.2 464.9Z"/></svg>