<svg xmlns="http://www.w3.org/2000/svg" viewBox="0 0 750 300" version="1.0"><defs><clipPath id="a"><path d="M254.5 29.5h240.7v240.7H254.5Zm0 0"/></clipPath></defs><path fill="#fff" d="M-75-30H825V330H-75z"/><path fill="#fff" d="M-75-30H825V330H-75z"/><g clip-path="url(#a)"><path d="M374.9 29.5c-66.4 0-120.4 54-120.4 120.4 0 66.3 54 120.3 120.4 120.3 66.3 0 120.3-54 120.3-120.3 0-66.4-54-120.4-120.3-120.4Zm0 230.5a110.3 110.3 0 0 1-110.2-110.1 110.3 110.3 0 0 1 220.3 0c0 60.7-49.4 110.1-110.1 110.1Zm0 0"/></g><path d="M400.2 165.8s-.7-.3-1.5-1.3a5.2 5.2 0 0 0-7.2-.5 5.2 5.2 0 0 0-.5 7.1c1.5 1.8 3.3 3.4 5.4 4.1 6.6 2.8 9 9.5 8.2 14.4-.3 2.5-2 8.4-9.8 9.4-2.5.3-5 0-7.4-1-1-.5-1.8-.8-2.5-1.3a20.6 20.6 0 0 0-8.8-3h-.7c-3.6.2-6.4 1.8-8.7 3-.8.6-1.8 1-2.6 1.3a14 14 0 0 1-6.4 1 5 5 0 0 0-5.4 5 5 5 0 0 0 4.9 5.3c3.8.2 7.7-.3 11.3-1.8l3.6-1.8c1.5-.8 3-1.5 4.3-1.8 1.3.3 2.6 1 4.4 1.8 1 .5 2.3 1.3 3.5 1.8 3.1 1.3 6.2 2 9.5 2 1.3 0 2.3 0 3.6-.2a20.7 20.7 0 0 0 18.4-18.5c0-10.5-5.8-21-15.6-25ZM354.1 175c6.2-2.6 10-11.3 11.5-14.9 2.6-6.4 5.2-9 9.5-9h.5c3.6.3 6 2.1 8 6.5a5.1 5.1 0 0 0 6.9 2.3 5.1 5.1 0 0 0 2.3-7c-3.8-7.6-9.5-11.7-17.2-12h-1c-12.3.8-16.9 11.8-18.2 15.6-2 4.9-4.6 8.5-5.9 9.3-6.9 3-11.7 8.7-13.8 16a22 22 0 0 0 3.6 19.3c1 1.3 2.6 2 4 2 1.1 0 2.1-.2 3.2-1 2.3-1.8 2.8-4.8 1-7.2-2-2.8-2.8-6.6-1.8-10.5.8-4.3 3.6-7.6 7.4-9.4ZM339.8 139.9c-2.6-12.3-11.5-21.3-21.5-21.3-1 0-2 0-2.9.3-4.6.7-8.4 3.6-11.2 7.7-3.9 5.6-5.1 13-3.6 20.7 2.6 12.3 11.5 21.3 21.5 21.3 1 0 2 0 2.8-.3 4.6-.8 8.5-3.6 11.3-7.7a27.4 27.4 0 0 0 3.6-20.7Zm-12 14.8a7.3 7.3 0 0 1-4.7 3.4c-4.6.7-10.7-4.1-12.5-13.1-1-4.9-.3-9.7 2-13a7.3 7.3 0 0 1 4.6-3.4h1c4.4 0 10 4.9 11.6 13 1 5.2.2 9.8-2 13.1ZM333.6 116.8c1 2.6 4.1 3.9 6.7 2.6 2.6-1 3.8-4.1 2.6-6.7-1-2.3-1.6-4.6-1.8-7.1-.3-4.4.5-9 2.5-12 1-1.6 3.1-4.4 6.2-4.7 3-.2 5.3 2 6.6 3.3a21 21 0 0 1 4.4 11.6c.2 4.3-.5 9-2.6 12-1 1.5-3 4.4-6.1 4.6-.8 0-1.6 0-2.3-.2-2.6-.8-5.7.5-6.4 3.3-.8 2.8.5 5.6 3.3 6.4 1.5.5 3.3.8 4.9.8h1.2c5.7-.6 10.8-3.9 14.1-9.5a32.8 32.8 0 0 0-2.8-35.6 19 19 0 0 0-15.4-7.2c-5.6.5-10.7 3.9-14 9.5-3.1 5.1-4.4 11.5-3.9 18.2.5 4 1.3 7.7 2.8 10.7ZM410 139.9a27.2 27.2 0 0 0 3.5 20.7c2.9 4.1 7 7 11.3 7.7 1 .3 2 .3 3 .3 10 0 19-8.7 21.6-21.3.8-3.6.8-7.4.3-10.7-.6-3.1-3.1-5.2-6-4.7-2.8.6-4.5 3.1-4.3 6 .3 2.2.3 4.8-.2 7.1-1.6 8-7.5 13.8-12.6 13-2.3-.4-3.8-2-4.6-3.3-2.3-3.3-3-8.2-2-13 1.5-8 7.4-13.9 12.5-13 .5 0 1.3.2 1.8.4 2.5 1.3 5.6.5 6.9-2 1.3-2.6.5-5.7-2-7-1.6-.7-3.1-1.2-5-1.7-10.7-1.6-21.4 7.7-24.2 21.5ZM396.6 131h1.3c10.8 0 19.7-10.6 20.8-24.4.5-6.7-.8-13-3.9-18.2-3.3-5.6-8.4-9-14-9.5-11.3-1-21 10-22 24.4-.6 6.6.7 13 3.8 18.1a19 19 0 0 0 14 9.5Zm-7.6-27c.7-9 6.1-15 10.5-15h.5c3 .2 5 2.7 6.1 4.5 1.8 3.4 2.8 7.7 2.6 12-.8 9.3-6.4 15.4-11 15.2-3.1-.3-5.2-2.8-6.2-4.6-2-3.1-2.8-7.7-2.5-12Zm0 0"/><path d="M436 101.5c-.7-21.3-14.8-38.5-33.7-40-10.3-.8-20 3-27.4 10.5a34.8 34.8 0 0 0-27.4-10.5c-18.7 1.5-32.8 18.7-33.8 40l-1.6.2c-9 1.6-17.1 7-22.5 14.9a44.2 44.2 0 0 0-6.2 33.8A44.4 44.4 0 0 0 307 182a59.5 59.5 0 0 0 59.4 56.1h17.4a59.6 59.6 0 0 0 59.5-56.3 44.2 44.2 0 0 0 22.7-31.3 45 45 0 0 0-6.1-33.8 34 34 0 0 0-22.5-14.8c-.3-.3-.8-.3-1.3-.5Zm15.4 21a35 35 0 0 1 4.7 26 34 34 0 0 1-19.8 25.4c-2 .8-3.3 2.9-3.3 5v.2c0 27.1-22 49.4-49.4 49.4h-17.4c-27.2 0-49.5-22-49.5-49.4V178l-.2-.5c0-.2 0-.2-.3-.5 0-.2-.2-.2-.2-.5s-.3-.3-.3-.5c.5-.5.3-.5.3-.5l-.6-.5c-.2 0-.2-.3-.5-.3 0 0-.2-.2-.5-.2-.2 0-.2-.3-.5-.3a33.7 33.7 0 0 1-20.2-25.4 35 35 0 0 1 4.6-26 24 24 0 0 1 15.9-10.6c1.2-.2 2.8-.2 4-.2h.6c1.5 0 2.8-.5 3.8-1.6 1-1 1.6-2.5 1.6-3.8-1-18 9.4-33 24.3-34.3 8.7-.8 16.9 3.6 22.5 11.2 2 2.6 6.4 2.6 8.2 0 5.7-7.6 14.1-11.7 22.6-11.2 14.6 1.2 25.3 16.1 24.3 34.3a5.2 5.2 0 0 0 5.4 5.4h.5c1.3 0 2.8 0 4 .2 6 .8 11.6 4.6 15.4 10.3Zm0 0"/></svg>