<svg width="20" height="20" viewBox="0 0 20 20" fill="none" xmlns="http://www.w3.org/2000/svg">
<g clip-path="url(#clip0_339_2900)">
<path d="M2.74408 2.74408C2.5878 2.90036 2.5 3.11232 2.5 3.33333V12.6667C2.5 12.8877 2.5878 13.0996 2.74408 13.2559C2.90036 13.4122 3.11232 13.5 3.33333 13.5H7.5V2.5H3.33333C3.11232 2.5 2.90036 2.5878 2.74408 2.74408Z" fill="#EDF1FD" stroke="#6857D9" stroke-width="1.25" stroke-linecap="round" stroke-linejoin="round"/>
<path d="M12.5 2.5H7.5V16.6667C7.5 16.8877 7.5878 17.0996 7.74408 17.2559C7.90036 17.4122 8.11232 17.5 8.33333 17.5H11.6667C11.8877 17.5 12.0996 17.4122 12.2559 17.2559C12.4122 17.0996 12.5 16.8877 12.5 16.6667V2.5Z" fill="#EDF1FD" stroke="#6857D9" stroke-width="1.25" stroke-linecap="round" stroke-linejoin="round"/>
<path d="M17.2222 2.5H12.5V11.5H17.2222C17.2959 11.5 17.3665 11.4473 17.4186 11.3536C17.4707 11.2598 17.5 11.1326 17.5 11V3C17.5 2.86739 17.4707 2.74021 17.4186 2.64645C17.3665 2.55268 17.2959 2.5 17.2222 2.5Z" fill="#EDF1FD" stroke="#6857D9" stroke-width="1.25" stroke-linecap="round" stroke-linejoin="round"/>
</g>
<defs>
<clipPath id="clip0_339_2900">
<rect width="20" height="20" fill="white"/>
</clipPath>
</defs>
</svg>
