<svg width="513" height="513" viewBox="0 0 513 513" fill="none" xmlns="http://www.w3.org/2000/svg">
<path fill-rule="evenodd" clip-rule="evenodd" d="M46.4487 39.8846C44.7078 39.8846 43.0382 40.5762 41.8072 41.8072C40.5762 43.0382 39.8846 44.7078 39.8846 46.4487V340.52C39.8846 342.261 40.5762 343.931 41.8072 345.162C43.0382 346.393 44.7078 347.085 46.4487 347.085H158.038V39.8846H46.4487ZM197.423 39.8846V466.551C197.423 468.292 198.115 469.962 199.346 471.193C200.577 472.424 202.246 473.115 203.987 473.115H309.013C310.754 473.115 312.423 472.424 313.654 471.193C314.885 469.962 315.577 468.292 315.577 466.551V39.8846H197.423ZM354.962 39.8846V284.069H473.115V39.8846H354.962ZM354.962 323.454H484.056C496.531 323.454 504.099 314.757 507.458 308.711C511.066 302.216 512.5 294.751 512.5 288.008V35.9462C512.5 29.2027 511.066 21.7375 507.458 15.2431C504.099 9.19697 496.531 0.5 484.056 0.5H46.4487C34.2624 0.5 22.5751 5.34101 13.9581 13.9581C5.34101 22.5751 0.5 34.2624 0.5 46.4487V340.52C0.5 352.707 5.341 364.394 13.9581 373.011C22.5751 381.628 34.2624 386.469 46.4487 386.469H158.038V466.551C158.038 478.738 162.879 490.425 171.497 499.042C180.114 507.659 191.801 512.5 203.987 512.5H309.013C321.199 512.5 332.886 507.659 341.503 499.042C350.121 490.425 354.962 478.738 354.962 466.551V323.454Z" fill="#6857D9"/>
</svg>
